<?xml version="1.0" standalone="no"?>
<!DOCTYPE svg PUBLIC "-//W3C//DTD SVG 20010904//EN"
 "http://www.w3.org/TR/2001/REC-SVG-20010904/DTD/svg10.dtd">
<svg version="1.0" xmlns="http://www.w3.org/2000/svg"
 width="512.000000pt" height="512.000000pt" viewBox="0 0 512.000000 512.000000"
 preserveAspectRatio="xMidYMid meet">
<metadata>
Created by potrace 1.16, written by Peter Selinger 2001-2019
</metadata>
<g transform="translate(0.000000,512.000000) scale(0.100000,-0.100000)"
fill="#000000" stroke="none">
<path d="M2345 5101 c-135 -31 -273 -89 -322 -134 -34 -31 -31 -79 8 -111 17
-14 36 -26 42 -26 7 0 41 14 77 31 150 72 266 99 419 99 391 0 735 -268 832
-648 10 -41 19 -90 19 -109 l0 -33 -633 0 c-349 0 -736 3 -861 7 l-227 6 6 51
c13 106 65 234 145 357 47 72 51 109 15 144 -56 57 -109 25 -191 -115 -74
-125 -104 -217 -140 -426 -3 -16 -16 -23 -59 -33 -66 -15 -158 -74 -203 -131
-123 -152 -110 -383 29 -522 25 -25 69 -58 98 -72 l51 -26 0 -1325 0 -1325
-45 -21 c-113 -53 -198 -172 -213 -299 -10 -86 0 -147 36 -223 37 -79 98 -139
181 -180 l66 -32 684 0 684 0 20 26 c17 24 18 31 7 63 -6 20 -17 39 -23 43 -7
5 -307 10 -667 13 l-655 5 -54 30 c-64 35 -100 80 -117 144 -13 53 -5 120 20
170 22 41 89 96 135 109 28 9 312 12 1057 12 1004 0 1020 -1 1064 -21 190 -86
193 -342 5 -426 -34 -15 -76 -18 -270 -21 -143 -1 -238 -7 -252 -14 -28 -14
-45 -61 -34 -91 18 -47 23 -48 303 -45 l264 3 65 32 c83 41 144 101 181 180
36 76 46 137 36 223 -15 127 -100 246 -213 299 l-45 21 0 1325 0 1325 51 26
c217 109 279 404 127 595 -43 55 -135 114 -201 129 -59 15 -67 22 -67 66 0 18
-11 74 -24 126 -77 296 -267 529 -541 664 -160 78 -236 96 -430 100 -128 2
-176 -1 -240 -15z m1300 -1108 c114 -61 162 -202 106 -310 -27 -53 -91 -108
-144 -122 -31 -9 -314 -11 -1067 -9 l-1025 3 -40 22 c-82 44 -126 117 -126
208 0 113 67 198 178 224 22 5 480 9 1058 8 l1020 -2 40 -22z m-410 -601 c-6
-5 -134 -67 -285 -140 -151 -72 -515 -246 -808 -386 l-532 -254 2 214 3 214
370 179 370 179 445 1 c244 1 440 -3 435 -7z m-75 -422 l0 -211 -157 -76 c-87
-41 -191 -90 -231 -109 l-72 -34 2 212 3 211 225 108 c124 60 226 108 228 109
1 0 2 -95 2 -210z m350 -432 l0 -213 -921 -440 c-506 -242 -933 -446 -950
-453 l-29 -12 0 212 0 213 168 80 c92 44 516 247 942 452 426 204 778 372 783
372 4 1 7 -95 7 -211z m-350 -766 l0 -209 -223 -106 c-122 -59 -226 -107 -230
-107 -4 0 -7 94 -7 208 l0 209 218 106 c119 58 223 106 230 106 9 1 12 -47 12
-207z m350 -426 l0 -213 -378 -182 -378 -181 -280 1 c-153 1 -347 4 -431 8
l-152 6 177 85 c97 46 461 220 807 387 347 166 631 302 633 302 1 1 2 -95 2
-213z"/>
</g>
</svg>
