<?xml version="1.0" encoding="UTF-8"?>
<svg version="1.1" viewBox="0 0 2048 2048" width="512" height="512" xmlns="http://www.w3.org/2000/svg">
<path transform="translate(1048,48)" d="m0 0h21l30 2 28 4 27 6 26 8 21 8 20 9 22 12 14 9 14 10 8 6-2 5-9 11-7 9-8 10-10 14-5-2-13-9-16-10-23-12-25-10-19-6-26-6-29-4-19-1h-23l-25 2-29 5-26 7-22 8-18 8-18 10-16 10-13 10-13 11-19 19-10 13-14 23-42 70-1 4-5-2-29-17-20-12 1-5 13-22 9-15 4-8h-12l-25 3-22 6-17 7-17 9-14 10-14 12-11 11-10 13-10 16-8 16-7 18-5 21-2 17-1 22v82l5-5 12-13 9-10 15-14 14-11 15-10 17-9 19-8 21-6 20-3h34l21 3 24 7 19 8 19 10 18 12 14 11 11 10 8 7 10 9 17 13 21 13 23 11 30 10 28 5 25 2h22l25-2 31-5 24-6 20-6 29-11 21-10 12-8 13-10 14-12 12-12 1-2h2l2-4 13-17 9-15 8-16 6-15 6-23 3-21v-28l-3-22-5-19-7-19-10-20-7-11-6-9 7-6 16-12 17-13 8-6 4 2 9 14 9 15 8 16 8 18 8 26 5 25 2 19v33l-3 23-5 22-5 16-6 16-11 23-12 20-9 12-8 10-9 11-22 22-11 9-13 10-3 2-1 7-1 62h19l19 2 18 5 19 10 13 10 12 12 10 15 7 14 5 17 2 13v44l-4 21-6 15-6 11-8 11-11 12-13 10-17 9-20 6-13 2-24 1-1 2-1 90-1 11 32 1 2 2 4 58-1 2-31 5-17 2-2 10-7 24-7 19-9 21-8 16-10 19-12 19-12 17-14 18-11 12-7 8-25 25-11 9-10 9-12 9h-2v97l19 4 84 20 43 10 263 62 46 11 33 8 21 7 21 9 16 8 20 12 16 12 13 11 12 11 9 9 7 8 14 18 11 17 10 18 10 22 10 30 6 28 3 28v85l-3 1h-57l-2-1-1-84-3-24-5-21-7-20-8-18-8-14-11-16-9-11-11-12-12-11-19-14-19-11-14-7v399h126l1-77 1-1h60l1 1v138l-2 1h-1777v-299l5-24 4-17 6-19 8-20 8-17 12-20 12-17 9-11 9-10 5-6h2l2-4 8-7 9-8 16-12 17-11 18-10 22-10 22-8 58-14 293-69 107-25 31-7h3v-96l-8-7-10-8-13-11-13-12-22-22-9-11-11-13-14-19-11-17-12-21-9-17-12-28-11-33-5-18-43-6-4-2 1-25 3-35 2-1 31-1-1-10-1-29v-64l-26-1-15-3-15-5-17-9-15-12v-2l-4-2-11-14-8-14-5-12-4-16-1-6v-48l4-20 6-15 8-14 9-11 12-12 13-9 16-8 13-4 10-2 12-1h18v-206l2-28 4-23 6-22 8-21 8-16 12-20 8-11 7-9 10-11 7-8 11-10 17-13 15-10 27-14 24-9 24-6 20-3 13-1 56-1 5-5 11-12 18-18 14-11 13-10 17-11 21-12 21-10 21-8 18-6 28-7 30-5 19-2zm-320 418-20 4-15 6-16 8-14 10-13 12-14 14-18 22-13 18-14 21-8 13-6 11-1 30v61l1 238 6-2 17-10 14-10 11-9 14-12 13-12 12-11 11-9 14-11 15-10 15-8 15-6 18-5 21-3h30l22 3 18 5 18 8 15 9 10 7 4 1 10-6 10-7 15-8 17-6 17-4 16-2h31l25 4 21 7 17 8 16 10 16 12 14 12 11 10h2v2l8 7 11 10 14 11 13 10 13 8 11 6 3-1 1-361-9 2-34 10-31 7-35 5-27 2h-20l-26-2-22-3-26-6-30-10-24-11-20-11-19-13-14-11-11-10-8-7-10-9-19-14-16-9-15-7-20-6-12-2zm-232 204-11 2-11 6-9 8-6 10-4 13v38l4 13 7 10 7 7 12 6 8 2 19 1 2-1v-115zm770 0-1 2v113h23l12-4 9-6 8-8 6-12 2-10v-36l-3-11-6-11-7-7-10-6-8-3-7-1zm-490 207-17 3-15 6-14 8-11 8-14 12-12 11-8 7-12 11-11 9-14 11-14 10v1l86 12 11 1h30l23-3 21-5 43-14 36-12 7-1 49 16 33 11 23 5 23 3h29l33-4 63-9-5-5-16-12-14-12-10-9-8-7-10-9-14-12-15-12-17-10-16-6-17-3h-25l-17 3-13 5-11 7-10 7-12 6-16 4h-18l-16-4-15-8-11-8-14-7-14-4-9-1zm112 139-36 12-32 10-21 5-27 4-11 1h-32l-36-4-98-14-2 1 3 8 8 21 9 20 13 24 10 15 10 14 9 11 12 14 26 26 11 9 12 10 19 14 22 14 24 14 28 14 28 12 34 12 18 5 21-6 33-12 25-11 21-10 22-12 21-13 16-11 12-9 10-8 11-9 16-15 15-15 7-8 13-16 10-14 12-19 13-24 9-21 7-19 1-6-72 10-44 6-21 2h-30l-27-3-24-5-27-8-48-16zm-139 281v120l54 18 7-13 8-10 8-7 14-8 12-4 17-2h41l16 2 12 4 14 8 9 8 9 12 5 9 6-1 40-13 8-3 1-2v-118l-19 9-27 13-27 11-26 9-23 7-15 4h-8l-19-5-31-10-19-7-26-11-29-14zm-126 144-6 4-1 3v163l2 4 6 3 7-1 165-55 1-2v-62l-10-4-38-13-40-13-41-14-40-13zm527 0-36 12-37 12-41 14-54 18-1 1v63l7 3 159 53 8 1 5-3 2-5v-162l-6-7zm74 7-1 162-2 16-6 16-10 14-7 7-15 9-15 5-4 1h-24l-21-6-44-15-40-13-38-13-12-4-4-1-4 18-4 11-6 10-9 10-8 7-16 8-13 4-1 1v61h381l3-1v-288l-5-2-72-17zm-672 0-73 17-4 2-1 284 1 4h383v-60l-9-3-16-7-11-8-8-8-7-11-4-8-4-15-1-8-7 1-40 13-41 14-61 20-12 3h-24l-16-5-11-6-12-10-9-12-6-13-3-11-1-9v-164zm315 4-6 3-2 7v164l3 5 3 2 5 1h39l7-3 3-5v-165l-3-6-4-3zm-455 29-157 37-4 2-1 160-5 1h-56v-143l-9 3-20 11-11 8-13 10-13 12-7 7-9 11-11 15-9 15-11 23-8 24-5 25-2 23v212l1 1h126l1-1 1-196h41l19 1 1 196h1276v-418l-8-3-71-17-52-12-25-6h-5l-1 334-952 1v-336z"/>
<path transform="translate(1646,341)" d="m0 0 3 2 9 39 57 253 17 76 1 9h2l1-9 14-62 19-85 9-39 11-49 16-71 14-62 5-1 38 11 22 8 21 11 12 8 13 11 8 7 8 8 9 11 9 13 8 14 8 17 7 21 4 19 1 8 1 21-1 19-4 24-10 45-9 39-11 49-16 72-10 43-6 16-7 14-9 12-9 10-11 9-13 8-13 6-16 5-10 2h-29l-25-5-11-3 4 15 26 116 14 62 5-3 11-8 15-8 14-5 17-4 9-1h19l19 3 18 6 16 8 14 10 13 12 10 12 9 15 6 13 5 18 2 11v29l-5 22-6 16-9 15-8 11v3l11 11 8 7 29 29 8 7 1 3-4 5h-2l-2 4-19 19-1 2h-2v2h-2l-2 4h-2l-2 4-3 3-5-2-36-36-8-7-20-20-7 1-20 4h-28l-20-4-16-6-15-8-12-9-13-12-9-11-10-16-7-17-4-15-5-30-22-98-16-71-9 40-8 36-15 67-7 32-5 30-6 18-7 14-9 13-9 10-5 5-9 8-18 11-14 6-13 4-15 3h-29l-19-4-7-2-2 4-5 4-6 7-8 7-26 26-6 5-13 13-4-1-7-8-11-11-7-8-15-15 2-4 12-11 26-26h2v-2h2v-2l8-7 6-7-10-14-8-14-5-13-4-14-2-11v-27l4-20 7-19 8-14 12-16 10-10 15-11 14-8 19-7 14-3 9-1h20l19 3 18 6 19 10 9 7 5 3 15-65 8-36 18-80 3-12-15 4-21 4-17 1-19-2-17-5-19-9-11-8-10-9-8-8-11-16-7-15-6-20-43-191-10-45-4-21-2-19v-12l2-23 5-22 6-18 10-21 9-14 8-11 9-10 7-8 11-10 18-13 16-9 18-8 26-8zm-45 80-16 11-13 12-9 10-7 10-7 12-6 16-3 9-3 21v14l3 21 27 120 23 102 6 25 5 13 7 9 8 7 11 6 7 2 13 1 18-3 30-7-1-9-24-106-21-93-20-89-16-71-9-41-1-2zm264 0-13 57-8 35-8 36-8 35-8 36-11 49-16 71-15 67-5 21 1 4 35 8 5 1h20l13-5 10-7 7-7 7-14 6-24 20-89 17-76 9-39 6-28 2-16v-14l-2-16-4-15-7-17-8-14-11-14-7-7-13-10-13-8zm-300 700-14 3-14 7-12 11-7 10-6 15-1 6v17l4 14 6 11 7 9 10 8 14 7 9 2h20l13-4 10-5 11-9 9-12 5-12 2-10v-15l-2-10-5-12-6-9-5-6-13-9-12-5-10-2zm324 0-15 4-12 7-10 9-7 10-5 10-3 14v13l4 16 7 13 8 9 13 9 10 4 8 2h21l15-5 11-7 10-9 8-12 4-12 1-5v-19l-3-12-8-15-8-9-10-7-13-6-11-2z"/>
<path transform="translate(189,106)" d="m0 0 59 1 1 1v59h59l2 2v58l-2 2-58 1-1 58-2 2h-59l-1-1-1-59-59-1-1-1v-60l1-1 59-1 1-59zm-2 62v61l61-1v-59l-2-1z"/>
<path transform="translate(709,693)" d="m0 0 59 1 1 1v59l-1 1-58 1-3-1v-61z"/>
<path transform="translate(993,693)" d="m0 0 58 1 1 1v59l-1 1h-61v-61z"/>
<path transform="translate(157,1041)" d="m0 0h61l1 1v59l-1 1h-61z"/>
<path transform="translate(1856,129)" d="m0 0h61l1 1v59l-1 1h-60l-1-1z"/>
</svg>
