<?xml version="1.0" encoding="UTF-8"?>
<svg version="1.1" viewBox="0 0 2048 2048" width="512" height="512" xmlns="http://www.w3.org/2000/svg">
<path transform="translate(389)" d="m0 0h1444l2 2 12 5 13 9 9 9 7 11 5 14 2 9v16l-7 44-6 28-7 26-9 27-12 29-12 25-8 15-12 20-8 12-11 16-11 14-11 13-9 11-11 11-7 8-24 22-11 9-18 14-16 11-20 13-19 11 1 7 8 29 9 36 8 33 8 26 10 26 9 20 11 22 8 20 7 25 3 18 1 12v12l-5 17-9 19-8 12-9 11-10 10-11 9-18 18-6 10v8l8 18 16 31 12 22 14 26 12 21 12 20 6 9 2-6 14-63 8-33 7-21 10-19 8-12 9-11 16-16 18-13 19-10 19-7 25-5 22-1 22 2 21 5 15 6 16 8 12 8 10 8 10 9 10 11 10 14 10 18 6 15 6 20h2v55l-3 9-9 42-13 56-17 74-96 420-13 57-12 52-8 24-11 21-9 13-13 15-4 2v2l-11 9-15 10-15 8-19 7-16 4-21 3h-16l-17-2-6-1v10l-4 26-7 26-9 24-12 25-10 17-12 17-8 10-7 9h-2l-2 4-16 16-8 7-14 11-21 14-18 10-21 10-25 9-28 7-27 4-12 1h-117l-43-3-33-4-39-7-38-9-30-9-32-11-27-11-8-4-4 10-5 13-6 10-8 9-11 8-12 5-13 3-16 1-96 1v1h-697l-15-6-13-9-7-7-9-14-5-15-1-6v-11l3-14 5-12 9-15 13-24 10-19 12-25 11-26 11-29 12-36 9-34 8-37 8-43 6-40 5-44 1-12 1-25v-19l-2-36-3-26-6-36-9-39-12-41-11-32-13-34-15-36-13-29-16-35-16-34-20-41-19-38-14-29-21-49-16-40-14-39-17-52-12-42-8-32-9-49-7-48-5-47-2-15v-125l2-12 5-42 6-35 8-36 10-35 10-30 13-32 11-24 15-29 11-19 12-19 14-21 9-13h2l2-5 13-16 8-10 11-12 18-18 11-9 13-11 17-12 22-14 33-17 25-10 24-8 34-8zm15 69-26 3-24 5-26 8-25 10-20 10-18 11-17 12-16 13-13 12-11 11-7 8-12 15-13 18-13 19-15 24-9 17-10 19-9 19-11 27-9 25-9 31-7 28-5 27-4 26-3 25-2 30-1 27v28l2 45 4 44 6 44 7 41 6 28 8 31 15 49 16 47 13 34 13 32 19 43 12 25 8 17 10 19 11 22 13 28 17 36 16 36 11 25 16 39 14 38 12 36 11 39 9 39 6 34 4 33 2 24v65l4-2 8-7v-2l4-2 19-19 7-8 8-9 9-11 1-3h2l15-20 13-18 10-15 11-17 9-15 15-26 11-20 8-16 13-27 9-20 15-35 13-33 14-38-1-3-17-8-21-12-17-12-10-8-14-12-14-14-7-8-12-15-12-18-12-21-10-22-10-30-6-26-4-25-2-18-1-15v-29l3-34 5-29 7-28 9-27 12-30 9-16 8-11 12-14 7-7 11-9 13-9 16-9 19-8 24-6 16-2h28l21 3 21 6 19 8 16 9 16 12 10 9 9 9 10 13 10 16 8 16 6 16 12 45 23 89 16 62 4 25v41l-4 24-6 21-11 29-12 31-9 29-7 26-7 33-4 24-3 24-3 37v57l3 38 6 42 7 34 9 34 12 36 11 28 9 20 14 29 15 27 12 19 12 18 10 14 10 13 11 14 12 14 11 12 7 8 25 25 8 7 10 9 11 9 15 12 15 11 22 15 21 13 23 13 27 14 19 9 27 11 28 10 26 8 27 7 29 6 32 5 29 3 41 2h99l22-2 22-5 16-5 15-6 16-8 14-8 16-12 14-12 12-12 11-14 9-13 9-16 6-12 9-25 4-15 4-23 1-17-1-16-15-15-10-13-9-14-9-19-6-19-4-24-1-4-11-5-100-40-37-15-31-12-10 4-74 37-23 11-15 5-6 1h-19l-15-4-15-8-43-29-201-134-43-29-44-29-31-21-12-11-7-9-6-12-4-16v-17l4-16 7-13 7-9 8-10 1-4v-103l1-23 3-27 5-27 7-27 11-32 12-27 12-22 14-22 12-17 13-16 10-13v-2h2l10-13 4-5v-2h2l13-17 10-12 10-13 9-11 8-10 14-18 12-19 8-16 8-20 7-26 3-22v-33l-2-17-5-23-8-23-9-19-14-24-15-26-10-17-4-5-564-1-13-4-10-9-5-9-2-9 1-10 4-10 6-8 10-6 6-2 965-1 35-2 28-4 28-6 25-7 21-7 28-12 26-13 25-15 20-14 14-11 14-12 8-7 27-27 18-22 13-18 10-15 12-21 11-21 9-21 10-27 8-28 4-17 7-43v-4zm1162 415-28 9-28 7-32 6-35 4-17 1-330 1 5 10 9 14 12 22 9 19 8 21 7 27 4 24 1 10v48l-3 22-5 23-6 20-10 25-8 16-10 17-12 17-10 13-13 16-11 14-9 11-11 14-10 13-13 16-11 14-13 16-10 14-10 15-10 18-12 25-9 25-7 25-4 21-2 13-2 37v10l4-2 12-11 16-10 15-6 18-4h28l17 4 21 9 46 22 28 13 16 8 31 15 23 11 22 10 16 8 40 19 37 18 24 11 16 8 25 12 26 12 16 8 34 16 39 19 24 11 16 8 25 12 22 10 32 16 5 1 9-37 28-122 17-74 12-53 9-39-1-5-10-16-14-21-12-19-24-40-14-25-15-27-10-19-20-40-7-21-1-6v-17l5-20 7-16 8-13 11-14 8-8 10-8 23-23 5-7 1-9-6-23-9-24-12-26-7-15-11-29-9-29-24-96zm-992 256-17 3-15 5-11 6-11 8-11 10-9 12-4 6-14 36-7 24-5 23-3 21-1 13v39l3 27 5 25 6 21 8 19 11 21 11 16 9 11 14 15 10 9 13 10 19 12 21 10 12 5 25 7 27 4 24 1h6l4-10 10-30 13-33 7-19 4-18 1-8v-22l-4-24-21-80-11-43-15-57-7-19-7-13-8-10-11-11-15-10-16-7-17-4-7-1zm1309 114-15 3-14 6-12 8-10 9-10 13-8 17-10 40-8 35-8 36-17 74-22 96-32 140-16 71-10 43-40 175-2 13v16l3 15 6 15 9 14 9 10 11 8 10 6 17 6 16 2h9l17-3 16-6 14-9 10-9 7-8 8-14 5-15 8-33 18-79 14-61 19-83 8-34 7-31 21-92 19-83 14-61 19-83 13-57 3-16v-18l-2-12-5-15-8-14-9-11-11-9-14-8-14-5-10-2zm-881 358-10 4-10 9-13 16-11 14-13 16-11 14-13 16-10 13-7 8 4 5 11 7 43 29 35 23 195 130 44 29 28 19 5-1 35-18 66-33 15-5 13-2 16 1 21 7 25 10 32 13 33 13 60 24 6 2 2-7 14-62 2-11-19-10-28-13-16-8-29-14-28-13-39-19-28-13-37-18-23-11-34-16-31-15-63-30-75-36-34-16-35-17-28-13-37-18-9-3zm-369 13-12 34-14 37-16 38-16 36-8 16-11 21-6 12-13 23-16 27-15 23-15 22-14 19-11 14-11 13-9 11-11 12-16 17-7 7-8 7-14 13-14 11-15 12-13 9-10 7-3 13-6 34-11 52-8 30-8 25-11 32-14 34-11 25-8 16-16 31-10 17-2 4h175l510-2 88-1 4-9 3-8-1-4-27-16-17-11-16-11-19-14-22-18-14-12-13-12-10-9-21-21-7-8-9-10-12-14-8-10-14-18-13-18-10-15-14-22-14-24-15-29-13-27-14-35-8-23-8-25-8-29-7-31-7-43-4-36-2-32v-51l3-42 5-39 3-20-3-1-31-3z"/>
<path transform="translate(1404,1672)" d="m0 0h24l14 2 17 5 17 8 13 9 14 12 11 13 8 13 7 15 6 21 1 8v29l-3 15-6 18-8 15-10 14-6 7-8 7-12 9-14 8-15 6-21 5-11 1h-13l-21-3-18-6-17-9-11-8-10-9-7-7-9-12-8-14-6-15-4-15-2-15v-15l3-19 7-21 7-14 11-15 9-10 3-3h2v-2l17-12 19-9 13-4zm9 69-11 2-10 4-11 8-8 10-5 11-2 10v13l3 11 5 10 9 10 8 6 12 5 5 1h17l13-4 11-7 8-8 6-10 3-9 1-6v-12l-3-12-6-12-8-9-11-7-11-4z"/>
<path transform="translate(1223,989)" d="m0 0h78l11 3 8 6 7 8 4 9 1 5v8l-3 10-6 9-8 7-11 4-12 1h-64l-11-2-10-6-8-9-4-8-1-4v-11l3-10 6-9 9-7z"/>
<path transform="translate(1363,1057)" d="m0 0 10 1 10 4 7 5 6 9 3 7 1 5v76l-2 9-6 10-8 7-9 4-4 1h-12l-11-4-8-7-6-8-3-8-1-8v-68l2-11 4-8 7-8 8-5z"/>
<path transform="translate(1357,853)" d="m0 0h15l11 4 10 9 6 12 1 6v75l-2 9-6 10-8 7-9 4-4 1h-12l-11-4-9-7-6-10-2-6-1-9v-65l2-13 5-9 6-7z"/>
<path transform="translate(1428,989)" d="m0 0h79l11 4 8 6 6 7 4 10v16l-4 10-9 10-8 4-7 2-16 1h-56l-14-2-9-5-3-2v-2h-2l-6-9-3-9v-12l4-11 7-9 9-6z"/>
<path transform="translate(202,2047)" d="m0 0 2 1z"/>
<path transform="translate(905,2047)" d="m0 0"/>
<path transform="translate(2047,965)" d="m0 0"/>
</svg>
