<?xml version="1.0" encoding="UTF-8"?>
<svg version="1.1" viewBox="0 0 2048 2048" width="512" height="512" xmlns="http://www.w3.org/2000/svg">
<path transform="translate(682)" d="m0 0h351v2l5 2 8 7 5 9 1 4v12l-4 10-7 8-10 5-5 1-120 1-31 2-17 3-16 5-16 8-10 7-4 2-2 4-7 8-8 16-3 9-3 18v29l3 24 5 25 9 30 4 10h159l5-5 9-10 12-12 14-10 19-10 21-7 18-3h32l17 3 18 6 17 8 16 11 16 13 13 11 11 9 14 12 10 8 14 12 11 9 13 11 14 10 17 9 20 7 22 5 24 3h39l24-3 22-5 9-3v-2l-5-2-10-8-18-13-34-25-14-10-16-12-8-8-4-8-1-4v-9l4-12 7-8 12-6h15l9 4 17 12 19 14 18 13 16 12 14 10 19 14 17 12 21 16 7 8 4 10v10l-3 9-6 8-9 8-13 8-12 7-19 8-18 6-26 6-19 3-22 2h-33l-31-3-25-5-26-8-21-9-18-10-16-12-14-12-14-11-10-9-14-11-11-10-10-8-13-11-16-13-13-8-13-5-9-2h-25l-15 4-14 7-10 8-9 9-3 6v149l10 7 18 13 17 14 12 11 14 14 11 14 7 10 9 15 8 16 8 21 7 26 4 23 3 27 1 16 1 46v161l-1 23-3 17-5 17-8 18-5 9-8 12-7 9h-2l-2 4-9 9-17 13-24 14-25 14-28 15-38 19-33 15-30 13-41 16-35 13-12 6-15 12-15 10-18 10-19 9-30 10-28 6-23 3-14 1h-31l-26-2-27-4-4-1-2 14-32 160-1 8v19l3 16 6 16 8 14 11 13 10 9 13 8 16 7 12 3 7 1h38l36-4 29-5 31-7 36-10 36-12 30-11 38-16 24-11 29-14 28-14 23-13 22-12 15-9 23-14 22-14 15-10 19-13 17-12 19-14 17-13 12-11 8-10 8-15 4-14 2-11 1-376 2-23 5-23 6-18 12-25 13-19 13-15 8-8 17-13 15-9 15-7 20-6 18-3h30l18 3 17 5 18 8 10 6 14 10 14 12 6 6v2h2l13 17 9 15 8 16 7 19 5 21 2 14 1 15v15l-2 27-5 27-6 22-7 20-11 25-12 22-7 11-12 17-11 14 5 5 21 16 19 14 21 16 9 7 15-57 11-35 14-39 16-42 13-33 15-39 11-29 10-29 6-12 7-6 9-4h15l9 4 8 7 5 9 1 3v14l-12 36-16 43-15 38-16 41-17 46-13 40-8 29-5 20-1 2 4-1h38l23 3 21 5 20 7 18 8 15 8 15 10 13 10 12 11 2 1v2l4 2v2h2l7 8 12 15 14 22 6 9 10 7 14 8 15 6 21 5 7 1h31l20-4 15-5 17-8 12-8 15-12 7-8 8-8 9-5 4-1h12l10 4 8 7 6 10v22h-2l-6 9-4 5h-2l-2 4-10 10h-2v2l-17 13-21 13-20 9-18 6-22 5-16 2h-35l-21-3-20-5-1 37-2 19-5 23-7 21-8 18-9 17-10 15-10 13-9 10-15 15-11 9-14 10-15 9-25 12-24 8-23 5-13 2-13 1h-24l-20-2-24-5-24-8-18-8-17-9-15-10-16-13-8-7-36 12-57 20-39 14-29 10-28 10-29 10-16 7-15 10-12 11-10 13-9 16-5 11-9 27-8 36-1 10 9 11 14 15 14 14 11 9 11 8 15 9 15 6 16 4 8 1h19l30-5 95-18 111-21 3-3 8-22 8-16 6-11 9-14 16-20 14-15 3-1v-2l14-11 11-8 13-8 21-11 21-8 17-5 20-4 20-2h27l26 3 25 6 22 8 23 11 19 12 14 11 12 11 5 4v2h2l7 8 10 12 14 21 9 16 8 19 6 18 5 21 3 22v39l-3 21-5 22-9 25-9 19-11 18-12 16-9 10-7 8-7 7-11 9-12 9-16 10-19 10-23 9-27 7-28 4h-33l-22-3-25-6-20-7-25-12-16-10-16-12-12-11-7-6-7-8-8-9-13-18-12-21-9-20-8-25-5-26-1-8v-21l-25 5-228 43-54 10-68 13-127 24h-13l-9-4-8-7-6-12v-15l6-12 7-6 9-4 29-6 122-23 15-2-5-5-11-10-8-7-15-15-7-8-12-14-12-15-5-10-1-3v-12l6-35 5-22 7-25 6-17-46 16-48 17-52 18-48 17-199 70-52 18-48 17-12 3-10-1-10-5-7-7-4-8-2-11 3-12 6-8 9-7 30-11 46-16 48-17 86-30 45-16v-110l-38 12-32 9-35 8-41 7-40 4-28 1-17-1-17-3-15-4-19-8-12-6-16-11-15-13-7-7-11-14-9-14-8-15-7-19-5-22-1-9v-28l5-30 32-160v-4l-8-4-13-10-7-7-8-11-8-16-4-12-2-14 1-17 9-45 1-9-56-17-46-14-17-8-13-10-7-7-9-13-6-12-4-13-2-14v-11l3-16 4-12 9-16 9-11h2v-2h2v-2l8-7 7-7 8-7 7-7 8-7 15-14 5-5h2v-2l8-7 7-7 8-7 16-15 12-11 7-7 8-7 33-31 13-12 9-6 6-2h13l10 4 8 7 5 10 1 3v13l-6 12-5 6-8 7-17 16-3 3h-2v2l-8 7-16 15-13 12-17 16-4 4h-2v2l-8 7-16 15-12 11-7 7-8 7-16 15-12 11-8 9-2 5v13l3 8 4 5 10 5 46 14 44 13 23 7 7 2 44 3 29 4 23 5 17 5 25 10 25 12 29 15 15 6 17 4 8 1h25l13-3 16-8 11-8 8-9 8-12 7-8 7-4 8-2h8l11 4 8 7 5 7 2 6v20l-3 17 8-4 30-13 26-12 29-14 22-11 22-12 25-14 16-10 8-7h2v-2l5-5 6-8 8-15 4-13 2-10v-220l-2-27-4-26-6-24-8-20-9-17-12-16-11-12-10-9-14-11-14-10-24-16-10-9-4-7-1-4-1-135v-13h-339l-6 8-12 21-10 23-9 28-6 23-5 23-4 25-3 33-2 44 25-3 24-1h24l22 1 37 4 32 6 32 8 30 10 26 11 22 11 19 12 7 6 6 10 1 4v12l-4 9-6 8-10 6-4 1h-14l-16-8-16-9-23-11-25-9-29-8-30-6-33-4-14-1h-50l-30 3-27 5-24 7-15 5-5 1h-8l-9-3-6-4-6-7-4-9-1-10 3-11 6-8 8-6 16-6 8-2v-48l2-28 4-33 6-34 7-29 10-32 8-20 12-25 10-17 8-11-1-7-12-36-7-30-4-27-2-30 1-22 4-24 5-17 7-16 6-11 8-11 9-11h2v-2l11-9 12-9 23-12 24-8 29-6zm39 60-22 1-23 3-17 5-12 5-11 6-14 12-6 8-6 10-6 17-2 14v32l3 26 6 27 9 29 3 6 1 1h120l-2-10-7-28-5-29-2-20v-33l3-23 5-19 8-20 11-18v-2zm625 648-16 4-14 6-14 10-10 9-11 14-9 16-6 15-4 17-2 22v193l4 5 17 9 10 3 7 1h10l15-3 17-7 15-9 11-8 11-9 21-21 13-17 12-18 13-25 9-24 7-27 3-22 1-22-2-21-4-17-6-15-8-15-11-14-9-9-13-9-17-8-17-4zm-818 333-7 35-3 16v11l3 8 6 7 10 5 27 7 25 5 24 3 14 1h26l27-3 23-5 21-7 25-12 8-5-3-2h-10l-25-3-21-5-21-8-54-27-14-6-18-6-22-5-20-3-11-1zm868 18-15 10-15 8-20 8-19 5-15 2h-17l-20-3-14-4-1 2-1 110-3 19-6 20-8 18-8 13-10 13-10 11-8 7-13 10-16 12-18 13-20 14-33 22-22 14-28 17-26 15-28 15-16 9-19 9-16 8-32 15-14 6-1 1v114l10-3 36-13 29-10 108-38 188-66 39-14 78-27 17-6-1-5-8-17-7-18-6-23-4-23-1-9v-31l3-24 6-25 8-22 11-23 11-18 10-13 11-13 16-16 14-11 5-4v-2l-19-14-21-16-19-14-17-13zm196 82-21 3-2 7-2 19-2 31-1 29-1 101-2 15-4 17-8 20-10 18-12 16-13 13-5 3 2 4 14 9 16 8 16 6 21 5 18 2h21l25-4 20-6 18-8 14-8 11-8 13-11 10-10 13-17 11-19 8-20 5-19 2-10 1-10v-25l-3-21-4-16-6-16-8-16-10-16-11-13-5-6-8-7-14-11-15-9-16-8-24-8-16-3-10-1zm-88 35-11 9-9 9-13 17-8 13-8 16-6 16-5 21-2 20v12l2 22 6 24 8 20 7 14 5-1 11-10 11-15 7-16 4-20 1-105 1-30 1-16zm217 440-22 3-21 6-17 7-18 10-13 10-10 9-11 11-10 13-8 13-8 16-6 16-5 18-2 15v32l3 19 5 18 8 19 8 15 10 14 10 12h2l1 3 8 7 11 9 19 12 22 10 17 5 16 3 11 1h23l21-3 19-5 19-8 12-6 15-10 11-9 7-6 14-16 10-15 11-21 8-24 4-25v-30l-3-19-6-21-7-17-10-18-9-12-11-13-11-10-15-11-19-11-17-7-21-6-22-3z"/>
<path transform="translate(473,1744)" d="m0 0h8l11 4 9 8 5 10 1 3v11l-4 10-5 7-10 6-24 9-29 10-28 10-29 10-39 14-78 27-91 32-97 34-8 5-3 6v12l5 10 4 3 3 1h9l65-12 68-13 69-13 143-27 101-19 228-43 91-17 27-5h8l11 4 8 7 5 8 2 6v12l-4 10-7 8-8 4-16 4-297 56-185 35-148 28-75 14-57 11-18 4h-33l-2-2-16-6-11-7-12-11-9-13-6-12-5-15v-35h2l2-9 8-16 7-9 9-9 14-9 20-8 32-11 48-17 242-85 40-14 43-15z"/>
<path transform="translate(1123)" d="m0 0h160v1l52 6 37 6 31 7 25 7 36 13 23 10 16 8 21 11 19 12 12 8 14 10 13 10 28 24 12 12 6 5 7 8 9 9 7 8 12 14 11 14 15 20 14 20 11 17 14 23 11 19 7 14 3 14v36l-2 66-4 60-5 48-7 52-9 51-4 17-5 10-7 6-8 4-6 1h-8l-11-4-9-8-5-10-1-11 12-68 6-45 5-50 4-61 2-66v-22l-11-20-16-26-14-21-10-14-13-17-14-17-22-24-19-19-8-7-13-11-20-15-13-9-18-11-16-9-16-8-15-7-26-10-25-8-33-8-28-5-21-3-30-3-39-2-41-1-78-1-9-3-8-6-6-9-2-6v-12l4-10 7-8z"/>
<path transform="translate(650,736)" d="m0 0h7l13 4 16 5 17 2h16l19-3 20-7 11-1 8 2 9 5 6 7 4 8 1 5v8l-3 9-6 8-6 5-12 6-17 5-14 3-18 2h-23l-23-3-19-5-12-5-10-6-7-9-3-7v-14l4-9 6-8 12-6z"/>
<path transform="translate(969,1692)" d="m0 0h14l9 4 8 6 6 10 2 6v13l-7 14-8 7-11 4h-13l-10-4-9-8-5-10-1-3v-14l4-10 7-8 8-5z"/>
</svg>
