<?xml version="1.0" encoding="UTF-8"?>
<svg version="1.1" viewBox="0 0 2048 2048" width="512" height="512" xmlns="http://www.w3.org/2000/svg">
<path transform="translate(941)" d="m0 0h182v1l50 7 32 6 31 7 42 12 41 14 33 13 33 15 25 12 26 14 23 14 33 22 16 12 14 11 14 12 10 9 8 7 21 21 7 8 14 17 13 18 16 24 9 8 11 9 14 12 11 11 18 22 12 18 10 18 8 17 6 15 7 25 4 21 2 20v232l-2 11-8 16-9 10-10 7-16 6-14 2-1 1v184l2 6 11 11 11 15 11 20 7 19 4 16 2 14v30l-2 21-5 24-6 21-8 20-10 19-13 21-11 14-9 10-7 8-15 14-17 13-17 11-23 12-20 8-22 7-12 3-13 27-12 22-14 23-10 15-13 18-11 14-9 11-9 10-7 8-5 6h-2l-2 4-16 16-8 7-12 11-11 9-12 10-15 11-13 9-6 4v189l4 16 7 16 8 11 9 10 10 8 17 9 13 4 20 3 113 14 10 3 8 6 6 7 3 8v14l-5 10-6 7-10 5-3 1h-15l-121-15-23-5-21-8-18-10-13-10-12-11-7-7-12-16-9-16-7-16-6-21-2-12-1-13-1-139-20 12-18 12-11 7-17 11-25 15-23 12-23 9-19 6-21 5-23 4-17 2h-47l-29-4-23-5-19-6-17-6-20-9-21-11-22-14-27-18-26-17-14-9 1 6v128l-1 19-3 18-4 14-5 13-8 16-7 11-11 14-14 14-18 13-21 11-20 7-20 4-97 12-328 40-19 3-19 5-19 7-17 8-13 8-14 10-15 13-13 13-13 17-11 18-12 23-5 5-5 4-5 1v2h-20v-2l-6-2-8-7-5-8-2-11 2-10 7-16 11-20 9-13 9-12 12-14 5-6h2v-2h2v-2h2v-2l8-7 13-11 20-14 19-11 23-11 30-10 23-5 36-5 230-28 165-20 19-3 12-4 16-8 9-7 8-7 8-10 9-17 5-17 1-7v-190l-14-10-14-11-13-11-8-7-10-9-9-9-6-12v-12l4-10 4-6 9-6 9-3h9l11 4 11 9 14 13 11 9 18 14 20 14 44 29 15 10 26 17 44 29 21 12 20 9 24 8 22 5 23 3 22 1 19-1 27-4 20-5 20-7 18-8 19-10 47-30 20-13 22-14 17-11 22-14 21-14 18-13 13-10 13-11 10-9 8-7 26-26 9-11 12-14 10-14h2l2-5 9-13 10-15 12-21 12-23 12-27 10-27 5-15 8-29 6-28 4-26 3-34 1-215v-40l-2-27-5-23-6-17-10-21-12-18-13-15-12-13-9-11-10-13-12-20-8-16-8-20-6-21-4-20-2-20-1-34-9-3-26-5-26-3-16-1-80-1-11-4-8-7-6-12v-15l6-12 8-7 6-3 5-1h80l28 2 31 4 25 5 28 8 21 7 27 11 28 14 27 16 16 11 17 13 11 9 10 9 8 7 22 22 9 11 8 9 15 20 17 26 9 16 1 2v-206l-2-19-4-20-7-21-13-27-12-18-11-13-19-19-11-9-20-15-15-10-13-8-16-9-19-10-21-9-18-7-26-8-24-6-36-6-24-2-20-1h-630l-32 2-24 3-34 7-28 8-32 12-20 9-22 12-14 8-24 16-13 10-10 8-15 13-12 12-11 14-8 12-10 18-8 18-8 26-4 25v210l12-21 16-24 10-13 11-14 10-11 1-2h2l2-4 23-23 8-7 13-11 12-9 14-10 17-11 26-15 30-14 26-10 25-8 30-7 31-5 20-2 23-1h358l8 2 7 4 5 4 6 10 1 4v14l-6 12-8 7-8 3-6 1-362 1-27 2-27 4-18 4h-4v16l-2 32-3 19-5 21-9 25-9 19-11 18-10 14-11 13-2 3h-2l-2 4-15 16-13 19-7 12-7 16-5 15-4 16-2 16-1 34v209l1 32 3 34 4 26 6 28 8 29 9 27 11 27 17 35 10 18 5 12v11l-7 14-7 6-13 5h-7l-12-4-9-8-10-17-12-22-11-24-2-3-24-6-28-11-23-12-15-10-12-9-13-11-19-19-11-14-11-15-12-21-9-19-7-20-4-13-5-26-2-18v-30l3-19 4-15 8-19 8-15 8-11 9-11 7-7 1-191h-11l-14-4-12-7-9-8-7-10-5-12-2-9-1-20v-193l1-25 4-27 6-23 10-26 8-16 8-15 12-18 9-12 12-14 12-13 12-11 14-11 5-4 11-17 11-16 12-16 10-11 9-11 22-22 8-7 15-13 15-12 19-14 17-12 22-14 24-14 22-12 30-15 30-13 34-13 10-3h11l10 4 7 5 6 9 2 7v12l-6 12-9 8-45 18-36 16-38 20-17 10-19 12-19 13-11 8-2 2 23-6 23-5 25-4 29-3 19-1h642l41 3 28 4 38 8 11 3-18-13-18-12-21-13-25-14-34-17-25-11-36-14-36-12-31-9-40-9-35-6-36-4-16-1-30-1h-84l-28 1-41 4-17 2-11-1-11-7-6-8-3-8v-13l4-10 7-8 10-5 25-4 24-3zm529 198m-867 359-24 12-21 13-14 10-12 9-10 9-11 9-19 19-7 8-11 13-14 19-14 22-1 2-1 209 9-1 16-2 14-1 1-1 1-66 1-19 4-25 6-23 7-19 12-25 12-19 10-13 7-8v-2h2l7-8 9-10 9-11 9-14 11-21 7-21 5-25 2-20zm853 0v10l3 22 5 19 6 16 8 16 7 12 9 12 11 12 7 8 9 10 12 16 12 19 8 15 8 20 6 19 4 17 3 20 1 17 1 70 22 2 12 2h6v-205l-4-10-14-21-9-12-11-14-15-16-20-20-14-11-11-9-24-16-19-11-17-9zm120 410-1 118-2 36-4 33-5 28-6 27-4 16 6-2 15-8 16-11 13-11 9-8v-2h2l9-11 9-12 8-13 11-23 5-15 5-22 2-16v-26l-3-14-4-11-8-15-11-13-14-11-16-8-13-4-12-2zm-1098 0-20 4-13 5-10 6-11 9-7 7-10 14-7 16-3 11-1 7v25l4 26 6 21 9 21 9 16 10 14 9 11 18 18 15 11 13 8 13 7h2l-1-9-6-25-6-34-4-34-2-34-1-121z"/>
<path transform="translate(1659,1830)" d="m0 0 18 1 133 16 42 6 24 6 22 8 24 11 22 13 19 14 10 9 8 7 15 15 9 11 12 16 12 20 8 15 5 13 1 9-3 10-6 10-12 8h-20v-2l-6-2-8-7-8-14-10-19-12-17-11-13-14-14-14-11-15-10-23-12-18-7-23-6-27-4-122-15-32-4-11-4-7-6-5-9-2-5v-12l5-12 5-5 5-4z"/>
<path transform="translate(1232,771)" d="m0 0h21l29 2 33 5 27 6 34 9 16 6 8 6 6 9 2 7v10l-4 11-7 8-10 5-4 1h-11l-50-13-24-5-20-3-26-2h-21l-21 2-25 5-21 7-20 8-4 1h-11l-11-4-8-8-5-10-1-4v-7l3-10 6-9 9-6 17-8 27-9 22-5 19-3z"/>
<path transform="translate(805,771)" d="m0 0h22l26 2 25 4 23 6 22 8 17 8 8 6 6 9 2 7v10l-4 11-6 7-8 5-7 2h-11l-10-3-25-10-19-5-17-3-23-2h-20l-25 2-25 4-27 6-36 10-5 1h-12l-10-4-8-8-5-10-1-4v-8l3-10 6-8 9-6 21-7 39-10 27-5 33-4z"/>
<path transform="translate(1186,923)" d="m0 0h7l15 4 18 5 19 3h32l22-4 24-7 12-1 10 3 9 7 6 9 2 8v8l-3 9-6 8-8 6-16 6-25 6-17 3-9 1h-36l-28-4-22-6-16-6-8-6-6-8-2-5-1-10 3-12 6-8 8-6z"/>
<path transform="translate(724,923)" d="m0 0h8l16 4 17 5 20 3h31l22-4 24-7 5-1h8l11 4 9 8 5 9 1 4v11l-3 9-6 8-10 6-21 7-28 6-16 2h-36l-27-4-26-7-15-6-8-7-6-12-1-9 3-11 5-8 9-7z"/>
<path transform="translate(946,1131)" d="m0 0h13l24 7 21 4 14 1h14l18-2 21-5 18-5h12l9 4 8 6 5 8 2 6v12l-3 9-9 10-10 5-23 7-26 5-22 2h-17l-29-3-26-6-18-6-8-5-8-9-3-8v-13l4-10 7-8z"/>
<path transform="translate(959,1323)" d="m0 0h129l8 3 8 6 6 8 2 6v15l-5 10-5 6-7 4-6 2-10 1h-114l-10-2-8-4-7-8-4-9-1-9 2-10 5-8 5-5 8-5z"/>
</svg>
