<?xml version="1.0" encoding="UTF-8"?>
<svg version="1.1" viewBox="0 0 2048 2048" width="512" height="512" xmlns="http://www.w3.org/2000/svg">
<path transform="translate(1348,259)" d="m0 0h12l10 4 8 9 3 6 1 4v19l-4 35-4 22-6 24-5 16 27-11 22-10 16-8 24-13 19-12 14-10 13-10 11-10 9-11 11-12 7-4 4-1h10l10 4 8 7 4 8 1 4v19l-3 30-6 29-4 13v2l24-10 16-8 18-10 13-10 12-11 9-14 7-14 4-5 9-5 7-2 10 1 10 5 7 8 8 15 14 33 11 33 8 34 4 28 1 16v14l-2 24-4 21-7 21-8 17-7 11-9 12-9 10-8 8-14 11-18 11-23 11-19 7-22 6 7 11 9 15 12 21 15 29 18 38 12 28 15 34 13 27 4 14 1 7v22l-3 15-5 13-8 14-9 11-17 17 1 5 13 14 9 11 11 12 7 8 12 14 9 10 7 8 12 14 9 10 9 11 12 13 9 11 10 11 7 10 5 10 4 13v25l-4 14-8 15-9 10-8 7-16 8-28 9h-2l5 10 1 3v8l-3 11 7 10 5 13 1 11-2 13-4 9-8 11-5 6h-2v2l-5 4-5 5 1 5 9 19 3 13-1 13-4 11-5 9-3 5 3 5 2 12 10 152v9l-2 7-6 9-5 4-10 4-27 6-34 6-39 5-35 3-17 1h-52l-40-3-32-5-31-7-10-3h-4l-8 17-1 7 24 72 1 5v11l-3 7-4 6-6 5-7 3-11 1-10-3-8-7-5-8-17-50-11-34-1-5v-8l5-19 8-19 2-4-16-10-16-12-10-9-8-7-12-13-9-10-9-11-10-12-13-18-10-15-10-17-10-19-10-25-6-21-3-15-1-9v-25l1-10-1-63-3-73-5-65-4-39-5-37-6-33-5-19-6-17-5-7-27-15-22-11-28-12-31-11-20-5-14-2h-14l-10 3-12 7-16 12-10 9-8 7-7 7-7 8-13 16-7 11-12 21-8 20-4 14-2 11v28l4 18 6 16 10 23 7 21 5 25 2 19v19l-3 24-5 21-5 15-8 18-10 19-7 10-1 3-1 50-3 45-5 45-5 32-8 42-9 39-10 36-8 25-7 21-14 36-8 16-4 5-8 5-14 2-10-3-8-6-5-8-2-7 1-11 12-31 6-15 14-43 10-37 8-34 7-36 7-47 4-39 2-34v-51l-9-17-13-23-17-32-12-22-20-39-29-58-13-28-14-31-16-38-11-30-8-25-6-24-2-13-7-101-2-38-1-33v-34l2-47 4-41 6-38 7-33 8-27 7-21 13-30 12-22 12-18 10-13 9-10 7-8 9-9 11-9 19-14 18-10 16-8 25-9 25-6 26-4 27-2 9-3 260-130 10-3h9l10 4 7 6 5 9 1 4v10l-6 20-13 40-2 4 27-14 17-10 22-14 18-13 15-13 4-2v-2h2v-2h2v-2h2v-2h2v-2h2l2-4 10-14 8-17 8-9zm-207 110-210 105-9 3-41 3-23 4-21 6-21 9-17 10-16 12-12 11-7 7-11 14-9 13-8 13-11 23-10 26-8 28-6 27-5 30-4 38-2 45v44l2 53 6 86 2 29 5 21 9 27 11 28 13 30 16 36 25 51 27 54 10 19 15 28 11 21 3-1 5-15 4-21 1-10v-11l-2-20-4-17-6-17-13-30-6-21-3-18v-34l4-23 5-17 6-16 10-21 14-23 10-13 7-9 12-14 17-17 8-7 18-14 17-11 16-8 9-3 11-2h29l25 4 22 6 24 8 24 10 25 12 16 8 22 12 12 8 7 7 9 14 8 18 7 21 8 32 7 41 5 40 4 44 3 48 2 59 1 78-1 5v22l5 23 7 19 12 25 12 19 10 14 10 13 11 13 7 8 11 12 11 11 13 10 13 8 21 11 25 9 23 6 26 5 27 3 12 1h69l46-4 42-6 22-4v-16l-6-92-1-11-6-4-37-16-5-1-69 23-5 1h-11l-8-3-7-6-5-10-1-9 4-18 11-44-1-4-14 25-15 27-16 29-6 7-7 4-4 1h-14l-12-6-39-26-44-29-72-48-14-10-6-7-3-11-8-90-11-126-1-10v-28l5-21 8-21 7-15 8-16 12-23 24-42 10-18 15-28 11-23 6-17 1-5v-16l-4-15-7-17-10-17-10-14-7-9-23-2-305-19-43-3-50-3-14-2-8-5-5-6-4-9v-10l4-11 5-5 8-5 19-4 88-13 53-7 43-4 104-4 81-5 69-6 66-7 66-9 37-6 42-8 40-9 21-6 16-6 16-8 11-7 11-9 10-10 9-14 7-15 4-15 3-19v-25l-3-26-6-27-9-29-5 1-11 10-19 13-21 12-21 10-29 11-25 8-40 10-18 3-10-3-6-4-6-7-3-7v-13l4-9 5-6 11-7 9-9 6-10 4-8-1-4-20 12-18 10-23 12-30 14-32 13-36 13-31 10-11 3-8-1-9-4-5-5-5-8-1-3v-13l4-9 16-20 9-16 5-11 2-6-4 2-21 14-18 11-21 12-15 8-28 13-20 9-20 8-8 2-10-1-10-5-7-9-2-6v-12l8-26 10-31v-2zm362 21m33 293-66 11-59 8-73 8-80 7v1l18 2 47 3 13 2 10 6 12 13 13 17 10 15 10 18 7 15 6 18 3 13 1 8v20l-3 16-8 24-11 24-13 25-13 23-14 25-13 23-17 32-11 24-4 13-1 5v10l17 193 2 23 2 5 16 10 84 56 20 13 10 7h4l14-26 13-23 12-22 13-23 16-29 6-8 5-4 11-4 114-21 1-4v-13l4-10 6-7 16-7 40-13 23-8 6-5 2-5-1-8-4-7-10-11-7-8-12-14-18-20-9-11-11-12-7-8-12-14-9-10-7-8-12-14-7-8-9-10-9-11h-16l-11-2-7-4-3-1v-2h-2l-2-5-3-7v-13l4-9 5-6 8-4 3-1 26-1 2-1v-2l4-2v-2h2l6-7 7-6 7-8 6-8 3-8 1-12-3-11-8-16-14-31-16-37-14-30-8-16-14-27-12-20-14-21-7-10zm153 637-28 13-29 14-24 11-9 5-3 7-11 45v3l10-3 26-8 7-1 12 3 27 12 4 1 1-3 4-2 1-4-12-25-5-13v-10l4-10 9-10 20-20-2-5zm-156 71 1 2z"/>
<path transform="translate(1010,978)" d="m0 0h25l18 4 15 6 12 6 17 11 12 9 14 12 7 7 6 12v13l-5 10-9 8-8 3h-11l-9-4-10-8-11-10-18-12-14-7-15-4h-7l-10 4-8 8-9 15-8 18-7 24-1 7v28l4 15 5 10 7 9 10 9 14 11 18 13 21 13 24 15 14 10 10 7h10l10-4 4-5 3-16 7-10 10-6 4-1h9l9 3 6 4 6 8 3 7v16l-4 15-7 13-9 11-8 7-14 8-16 5-10 2h-14l-15-3-12-5-11-7-13-10-21-13-24-15-17-12-12-9-13-11-8-7-10-10-9-13-8-15-6-18-3-16-1-10v-18l2-19 4-19 8-24 10-21 11-17 8-10 10-10 14-9 12-5z"/>
<path transform="translate(391,914)" d="m0 0h16l15 3 15 6 13 9 10 9 10 14 5 10 4 12 2 13v11l-2 15-4 12-8 15-11 13-14 11-15 7-15 4-5 1h-18l-14-3-13-5-14-9-10-9-8-10-7-12-5-14-2-10v-21l4-17 8-16 8-11 10-10 14-9 14-6 8-2zm1 56-9 4-7 7-4 9v13l5 10 8 7 7 3h12l9-4 7-6 4-8 1-4v-9l-3-9-8-9-10-4z"/>
<path transform="translate(256,482)" d="m0 0h13l8 3 9 7v2l4 2 10 10 2 3 4-2 19-19 8-5 4-1h13l9 4 6 5 6 12 1 9-3 9-4 6-9 10-11 11h-2l1 3 3 2v2l4 2 9 9 8 10 4 11-1 10-4 8-6 7-10 5-11 1-9-3-8-6-18-18-4 1-18 18-9 6-8 2-11-1-8-4-7-7-4-9-1-9 2-9 7-10 19-19-6-7-15-15-5-8-2-7 1-11 5-10 8-7z"/>
<path transform="translate(1077,1105)" d="m0 0h8l11 4 12 11 20 20 6 9 2 5v13l-5 10-7 7-11 4h-11l-10-5-12-11-18-18-7-10-2-7v-9l4-10 6-7 10-5z"/>
<path transform="translate(340,1460)" d="m0 0h7l10 3 10 9 4 8 1 4v8l-4 10-7 8-10 5-10 1-9-2-8-6-6-9-2-5v-12l4-9 6-7 9-5z"/>
</svg>
