<?xml version="1.0" standalone="no"?>
<!DOCTYPE svg PUBLIC "-//W3C//DTD SVG 20010904//EN"
 "http://www.w3.org/TR/2001/REC-SVG-20010904/DTD/svg10.dtd">
<svg version="1.0" xmlns="http://www.w3.org/2000/svg"
 width="512.000000pt" height="512.000000pt" viewBox="0 0 512.000000 512.000000"
 preserveAspectRatio="xMidYMid meet">

<g transform="translate(0.000000,512.000000) scale(0.100000,-0.100000)"
fill="#000000" stroke="none">
<path d="M1571 5109 c-227 -44 -391 -278 -353 -505 32 -196 180 -344 376 -376
289 -48 556 219 508 508 -42 255 -281 422 -531 373z m159 -309 c45 -23 80 -80
80 -130 0 -76 -74 -150 -150 -150 -50 0 -107 35 -130 80 -25 50 -25 90 0 140
37 73 124 99 200 60z"/>
<path d="M3988 4797 c-23 -14 -171 -182 -393 -449 l-355 -428 -1402 0 -1402 0
-44 -21 c-33 -16 -49 -32 -63 -63 -26 -58 -24 -95 10 -147 16 -24 488 -503
1050 -1064 l1021 -1020 0 -652 0 -653 -240 0 c-222 0 -244 -2 -280 -20 -45
-23 -80 -80 -80 -130 0 -50 35 -107 80 -130 38 -19 58 -20 670 -20 612 0 632
1 670 20 45 23 80 80 80 130 0 50 -35 107 -80 130 -36 18 -58 20 -280 20
l-240 0 0 653 0 652 1021 1020 c562 561 1034 1040 1050 1064 34 52 36 89 10
147 -14 31 -30 47 -63 63 -44 21 -53 21 -571 21 l-527 0 274 329 c151 180 281
342 290 359 48 93 -29 212 -136 212 -18 0 -50 -10 -70 -23z m-1134 -1339 c-74
-90 -141 -162 -147 -161 -7 1 -42 8 -80 15 -176 32 -375 -66 -458 -227 l-34
-65 -355 0 -355 0 -300 300 -300 300 1083 0 1082 0 -136 -162z m1141 -138
l-300 -300 -356 0 -356 0 -18 40 c-16 36 -16 42 -3 58 8 9 106 126 217 260
l202 242 457 0 457 0 -300 -300z m-1365 -320 c45 -23 80 -80 80 -130 0 -50
-35 -107 -80 -130 -21 -11 -53 -20 -70 -20 -50 0 -107 35 -130 80 -25 50 -25
90 0 140 37 73 124 99 200 60z m-461 -345 c83 -162 279 -258 461 -227 138 24
261 111 321 227 l34 65 205 0 205 0 -418 -417 -417 -418 -417 418 -418 417
205 0 205 0 34 -65z"/>
<path d="M2488 4499 c-43 -22 -78 -81 -78 -129 0 -50 35 -107 80 -130 21 -11
53 -20 70 -20 76 0 150 74 150 150 0 50 -35 107 -80 130 -49 25 -94 25 -142
-1z"/>
</g>
</svg>
