<?xml version="1.0" standalone="no"?>
<!DOCTYPE svg PUBLIC "-//W3C//DTD SVG 20010904//EN"
 "http://www.w3.org/TR/2001/REC-SVG-20010904/DTD/svg10.dtd">
<svg version="1.0" xmlns="http://www.w3.org/2000/svg"
 width="512.000000pt" height="512.000000pt" viewBox="0 0 512.000000 512.000000"
 preserveAspectRatio="xMidYMid meet">

<g transform="translate(0.000000,512.000000) scale(0.100000,-0.100000)"
fill="#000000" stroke="none">
<path d="M533 4465 c-81 -22 -132 -52 -193 -114 -164 -164 -168 -418 -9 -586
60 -64 113 -97 190 -119 50 -15 243 -16 2059 -14 l2005 3 58 23 c126 51 232
188 257 331 29 164 -63 355 -207 434 -112 61 19 57 -2138 56 -1665 0 -1978 -3
-2022 -14z"/>
<path d="M567 2980 c-221 -38 -383 -262 -348 -481 30 -185 173 -329 357 -359
80 -13 3888 -13 3968 0 184 30 327 174 357 359 36 224 -127 444 -357 481 -72
12 -3907 11 -3977 0z"/>
<path d="M510 1471 c-73 -23 -125 -57 -183 -120 -118 -127 -145 -310 -70 -470
31 -65 120 -159 181 -190 105 -54 -2 -51 2122 -51 1734 0 1973 2 2025 15 212
56 351 264 315 474 -24 144 -130 281 -257 333 l-58 23 -2010 2 c-1900 2 -2013
1 -2065 -16z"/>
</g>
</svg>
