<?xml version="1.0" encoding="UTF-8"?>
<svg version="1.1" viewBox="0 0 2048 2048" width="512" height="512" xmlns="http://www.w3.org/2000/svg">
<path transform="translate(1149)" d="m0 0h82l4 2 36 7 30 9 28 11 29 14 22 13 20 13 14 10 13 10 16 13 10 9 19 19 11 14 9 13 9 15 8 17 8 24 3 15 2 18v23l-1 15 19 10 12 8 14 11 15 14 9 11 10 14 9 16 8 17 2 6 1 9-2 8-4 8-4 5-10 6-4 1h-15l-9-4-6-5-6-10-9-19-10-15-11-12-9-8-15-10-4-1-8 17-11 19-14 21-11 14-9 10-3 3 1 5 8 16 8 21 7 25 5 29 2 26 1 212 13-32 9-20 15-33 19-38 11-27 7-20 7-25 9-39 4-8 7-7 7-4 5-1h12l10 4 8 7 4 6 2 6v17l-7 32-8 28-8 24-10 24-7 15-12 25-8 16-17 38-12 29-15 39-12 32-7 13-9 9-14 7-3 1v100l4 13 3 32 5 56 6 52 8 58 10 63 18 104 2 12v16l-4 36-4 30-4 16-7 12-9 8-12 6-9 2h-14l-13-4-7-4-4 16-8 26-9 25-12 29-5 11-1 4 5 1 26 10 124 48 36 14 47 18 31 12 93 36 27 11 20 10 20 13 13 10 14 12 14 14 9 11 11 15 10 16 9 17 10 25 7 25 4 23 2 26-1 18-4 14-4 9-7 11-10 11-8 6-12 7-17 6h-796v-2l-7-2-6-5-6-9-2-6v-12l4-10 7-8 12-6 5-1 779-1 7-4 3-6v-22l-3-20-5-19-7-19-11-21-8-12-9-11-11-12-10-9-18-13-20-11-32-13-83-32-150-58-75-29-10-4-4 1-6 11-8 14-16 24-9 12-11 14-9 10-7 8-9 10-17 17-8 7-13 11-18 14-20 14-18 11-23 13-17 8-15 7-26 10-28 9-28 7-28 5-25 3-32 2h-20l-34-2-24-3-36-7-30-8-26-9-26-11-29-14-26-15-25-17-18-14-11-9-15-14-10-9-11-11-7-8-10-11-11-14-15-20-13-20-14-25-4-1-42 16-23 9-98 38-62 24-101 39-24 10-17 9-10 7-12 9-15 14-11 13-11 16-8 14-10 25-6 23-3 26v9l3 8 5 5 3 1 776 1 12 2 10 6 6 7 4 10v11l-3 8-6 9-12 8h-798l-20-8-11-7-12-11-9-13-6-13-4-17v-22l3-26 6-27 7-21 8-18 10-19 12-18 10-13 9-10 18-18 10-8 15-11 22-13 19-9 28-11 49-19 93-36 114-44 83-32 13-5h3l-7-17-10-24-8-21-9-29-5-19-16 6-5 1h-14l-11-3-9-5-9-8-6-9-4-11-6-43-3-28v-21l15-87 9-53 9-61 7-54 6-57 5-61 3-10 2-3 1-5v-96l-15-8-10-9-8-14-15-40-10-26-14-34-18-40-15-30-13-28-10-26-8-24-7-27-7-36-3-23-2-30v-13l2-29 4-24 3-14-10-28-6-24-4-27-1-13v-26l3-28 5-25 8-26 10-25 8-17 11-19 9-14 10-14 10-13 8-8 11-7 12-5 10-2h20l11 3 9 4 10 6 12 12 10 15 7 10 8 7 11 7 10 5 15 4 15 2h24l28-4 26-6 29-9 20-7 28-11 41-18 33-15 75-34 37-15 26-10 40-13 31-8 23-5zm11 61-26 3-29 6-26 7-36 12-33 13-28 12-29 13-70 32-37 16-30 12-32 12-29 9-29 7-24 4-18 2h-32l-26-4-20-6-20-9-12-8-10-8-6-6h-2l-2-4-9-10-13-19-3-2-5 3-7 8-11 16-9 15-12 23-9 23-5 18-3 12-3 26v27l3 23 6 24 8 21 8 16 8 14 13 17 9 10 2 3h2l1 3 8 7 15 12 15 9 17 8 11 4 15 3 16 1 17-2 16-6 12-7 11-9v-2l4-2 15-15 11-9 10-8 13-9 17-10 19-9 19-6 12-3 14-2 13-1h21l20 2 23 4 31 8 41 13 36 11 22 5 19 3 19 1 18-1 27-4 19-2h49l29 3 5-12 4-18 1-8v-13l-3-15-8-16-8-10-9-8-16-10-16-7-11-3-26-3h-34l-21 2-24 5-24 8-13 5-4 1h-12l-12-6-6-7-4-9v-14l4-9 7-8 16-8 19-7 21-6 28-5 20-2h41l29 3 19 4 16 6 19 9 21 14 14 12 10 11 12 18 7 15 6 21 2 14v24l-4 24-4 17h17l23-3 17-4 12-4 2-1 6-25 4-25 2-26-1-26-3-18-5-17-7-16-7-12-8-10-7-8-8-7-14-10-18-10-20-8-19-6-25-5-16-2-30-2-9-3-9-8-4-8-1-3v-15l6-12 9-7 10-3h16l24 2 26 4 22 5 19 6 25 10 21 11 12 8 16 12 15 15 10 11 14 21 8 16 6 14 6 21 4 21 2 31-1 36 4-2 11-14 10-14 10-17 8-16 6-15 5-16 3-16 1-12v-10l-3-21-7-21-10-19-8-11-11-13-5-6-8-7-10-9-17-13-17-12-22-14-24-13-22-10-25-9-22-6-30-5-11-1zm-333 390-20 3-17 5-19 9-18 12-14 12-3 2v2l-4 2-18 18-13 10-13 8-17 8-16 5-21 4-1 1v421l7 11 7 19 8 21 9 20 8 14 12 16 6 11 6 16 3 16 3 22 1 2h15l23-5 16-6 23-12 18-12 19-14 28-22 21-16 20-13 16-9 18-8 18-5 16-2h10l16 2 17 5 17 9 10 7 4-2 14-9 15-7 17-4 10-1h12l15 2 14 4 15 6 16 8 18 11 32 24 14 11 18 14 17 12 16 10 10 6 21 9 17 5 14 2h11l2-4 5-32 4-14 8-16 14-19 12-23 8-20 10-28 5-8v-2l3-1 1-2v-413l-1-20-4-27-5-20-6-17-3-7-7 3-16 8-18 8-21 7-22 5-19 3-12 1h-32l-26-3-33-6-13-2-12-1h-42l-48 6-14 1h-15l-21-2-23-4-32-8-60-19-37-10-28-4zm-350 34 2 29 5 32 6 26 8 27 8 21 11 25 18 36 15 33 13 30 7 18h2l1-216-5-3-24-10-15-8-18-12-14-11-12-11zm479 592-14 3-21 10-14 9-19 14-10 8-14 11-13 10-19 14-15 10-19 11-23 11-20 7-18 4-12 2-13 1h-12l4 4 14 8 18 7 15 4 11 2 11 1h27l24-3 23-5 23-7 28-11 26-12 23-13 18-11 17-12 9-7 11-7 8-3 12-2 13 1 14 5 11 8 13 10 11 7 18 11 18 10 21 11 26 11 16 6 25 7 26 5 10 1h36l19-3 20-6 18-8 10-7v-1l-23-2-26-5-24-8-27-13-21-13-20-14-14-11-18-14-13-10-19-14-18-11-15-7-9-3-6-1h-9l-13 4-10 7-10 8-10 5-7 2-11 1-14-2-10-4-9-7-12-9-10-4zm-338 12-5 46-1 10 4-2 11-7 12-4 1-3-3-15-4-8-12-16zm810 0-10 12-6 10-4 17v3l16 6 6 4 5 3-1-15-4-35-1-5zm-823 104-8 53-12 71-8 45-2 11v12l4 36 6-2 13-4h14l13 4 11 7 8 10 5 11 10 39 8 25 10 28 13 30 8 17 12 22 15 25 9 14 4 1 9-7 12-5 6-1h13l13 4 11 7 10 9 17 13 18 13 24 14 18 10 19 9 15 7 27 11 28 10 29 9 14 4 8-1 31-9 30-10 32-13 24-11 24-12 28-17 12-8 14-10 11-9 13-11 9-5 7-3 6-1h13l9 2 12 6 7 6 7-9 11-17 14-24 8-16 12-25 13-33 11-33 11-43 6-14 9-10 11-7 11-3h16l10 3 7 3 4-30 1-16-14-80-9-54-7-46-5 5-11 14-14 15-11 10-13 10-12 8-5 8-11 22-14 23-7 10-14 19-13 15-4 4v2l-4 2v2h-2l-7 8-12 11-11 9-17 13-17 11-21 12-21 10-30 10-29 6-11 1h-29l-21-3-18-5-20-8-8-2h-16l-30 11-22 5-17 2h-26l-23-3-21-5-21-7-18-8-16-8-14-8-15-10-12-9-11-9-15-13-16-16-9-11-12-14-12-17-12-19-6-10-15-30-10-8-13-10-13-12-7-6-7-8-10-12-6-9zm419 6-18 13-17 11-23 13-21 11-27 12-27 10-26 8-26 6-25 4-11 1-24 1-20-1 2 5 11 13 9 10 5 6h2l2 4 13 12 15 12 17 12 17 10 16 8 17 7 23 6 14 2h24l16-3 15-5 18-7 15-3h27l15 3 29 11 14 3 7 1h24l18-3 20-6 15-6 16-8 16-9 17-12 16-13 12-11 14-14v-2h2l9-11 8-11-3-1-12 1h-19l-24-2-25-4-31-8-24-8-25-10-26-12-24-13-20-12-25-17-5-4zm324 3m-572 503-8 8-14 7-7 2-13 1 4 6 18 18 8 7 14 12 19 14 18 12 22 13 16 8 22 10 34 12 30 8 36 6 19 2 22 1h13l24-1 27-3 28-5 30-8 29-10 25-11 22-11 20-12 22-15 14-11 11-9 10-9 7-7 4-3v-2l4-2 4-5 3-3v-2l-17-2-14-7-10-9-4 1-14 11-24 16-18 11-21 12-19 9-16 8-34 14-27 10-32 10-26 7-6 1h-15l-21-5-30-9-26-9-33-13-29-13-26-13-24-14-22-14-16-12-9-7z"/>
<path transform="translate(1082,2047)" d="m0 0 2 1z"/>
<path transform="translate(162,2047)" d="m0 0 2 1z"/>
<path transform="translate(1271,1706)" d="m0 0"/>
<path transform="translate(620,1091)" d="m0 0"/>
</svg>
