<?xml version="1.0" encoding="UTF-8"?>
<svg version="1.1" viewBox="0 0 2048 2048" width="512" height="512" xmlns="http://www.w3.org/2000/svg">
<path transform="translate(159,127)" d="m0 0h768l12 2 10 6 7 8 4 9v22l-8 109-6 82-8 110-5 66-1 2h60l11 2 8 4 7 7 5 9 1 4 1 377 4 7 8 9 16 24 7 12 10 22 6 16 7 26 4 24 1 12v181h191v-266l2-28 6-36 7-26 7-21 11-26 10-20 12-20 8-12 8-11 7-9 11-13 7-8 21-21h2v-2l8-6 1-148 2-9 4-8 3-4h2v-2l10-6 9-2h66v-127h-198l-11-4-7-6-5-8-2-6v-16l5-12 9-8 9-4 8-1h416l13 2 10 6 7 9 3 9v14l-4 11-6 7-6 4-12 3h-35l-1 127h63l12 2 8 4 7 7 5 9 1 4 1 149 2 5 14 12 19 19 7 8 13 16 12 17 12 19 13 24 11 25 9 25 7 26 5 27 3 29 1 48-1 690-3 14-5 14-8 14-7 9-7 8-12 9-14 8-15 5-17 3h-199l-1 13-4 17-8 18-10 14-5 6h-2l-1 3-12 9-14 8-15 5-9 2-9 1h-656l-14-2-15-5-15-8-10-8-13-13-9-14-6-12-4-15-2-13v-6h-200l-14-2-15-5-15-8-10-8-13-13-9-14-7-15-3-11-2-18v-34h-261l-11-4-9-8-5-9-2-12-1-199-13-180-14-190-10-138-14-190-10-138-33-450v-26l4-9 4-6 9-6 6-3zm36 65 1 22 3 41h689l2-19 3-39v-5zm9 128 6 86 15 206 48 656 12 165 1 6 222 1 3-1 1-331 2-25 4-22 5-19 7-20 11-24 11-19 10-14 11-14 2-3 1-374 2-9 6-12h2v-2l5-2 8-4 8-1h258l2-1 2-19 10-135 4-56v-13zm1365 128-1 23v104h63v-127zm-928 160-1 3v316h31l1-258 2-8 4-8 4-5 10-6 8-2h195l13 2 9 6 6 7 4 9 1 263h31v-319zm832 32-1 3v92l252 1 3-1v-95zm-736 64-1 3v220h127v-223zm716 96-5 3-12 11-5 4v2l-4 2v2h-2l-7 8-9 10-13 18-10 15-13 24-10 23-7 21-5 19-4 21-2 20-1 24v252l253 1 14 2 8 4 8 9 3 6 1 4 1 454 4 1 194-1 10-4 6-4 6-8 3-10v-727l-3-27-6-29-11-33-12-26-12-21-14-20-9-11-9-10-11-12-10-9-8-7-3-1zm-831 192-8 10-10 15-8 14-8 19-5 15-3 11-3 23-1 20v608l2 12 5 9 7 6 8 4 4 1 194 1 3-1 1-449 2-9 6-12h2v-2l5-2 8-4 8-1h189l3-1v-178l-2-18-6-24-8-21-11-21-8-12-9-12-2-1zm243 352-1 2v125l5 1h695l3-1v-127zm-576 160-1 2v125l220 1 3-1v-127zm576 32-1 19v268l2 12 5 9 7 6 8 4 4 1h652l10-4 6-4 6-8 3-10v-293z"/>
<path transform="translate(790,752)" d="m0 0h19l11 3 9 6 8 7 7 11 4 12v18l-4 12-6 9-5 6-12 8-14 4h-15l-13-4-9-6-7-6-7-11-3-7-1-5v-19l4-12 7-10 7-7 10-6z"/>
</svg>
